<?xml version="1.0" encoding="UTF-8" standalone="no"?>
<!-- Created with Inkscape (http://www.inkscape.org/) -->

<svg
   width="32.000114mm"
   height="27mm"
   viewBox="0 0 32.000114 27.000001"
   version="1.1"
   id="svg1"
   xml:space="preserve"
   inkscape:version="1.1.2 (0a00cf5339, 2022-02-04)"
   sodipodi:docname="Spatial Intelligence - logo blur, light.svg"
   inkscape:export-filename="/home/yunusskeete/Documents/SpatialIntelligence/Spatial Intelligence - logo blur, light.png"
   inkscape:export-xdpi="362.85706"
   inkscape:export-ydpi="362.85706"
   xmlns:inkscape="http://www.inkscape.org/namespaces/inkscape"
   xmlns:sodipodi="http://sodipodi.sourceforge.net/DTD/sodipodi-0.dtd"
   xmlns="http://www.w3.org/2000/svg"
   xmlns:svg="http://www.w3.org/2000/svg"><sodipodi:namedview
     id="namedview1"
     pagecolor="#ffffff"
     bordercolor="#000000"
     borderopacity="0.25"
     inkscape:showpageshadow="2"
     inkscape:pageopacity="0.0"
     inkscape:pagecheckerboard="0"
     inkscape:deskcolor="#d1d1d1"
     inkscape:document-units="mm"
     inkscape:zoom="3.5104096"
     inkscape:cx="80.90224"
     inkscape:cy="78.338437"
     inkscape:window-width="1920"
     inkscape:window-height="1043"
     inkscape:window-x="3840"
     inkscape:window-y="0"
     inkscape:window-maximized="1"
     inkscape:current-layer="g5107"
     inkscape:pageshadow="2"
     showgrid="false"
     fit-margin-top="0"
     fit-margin-left="0"
     fit-margin-right="0"
     fit-margin-bottom="0" /><defs
     id="defs1"><filter
       inkscape:collect="always"
       style="color-interpolation-filters:sRGB"
       id="filter854"
       x="-0.39228843"
       y="-0.34180959"
       width="1.7845769"
       height="1.6836192"><feGaussianBlur
         inkscape:collect="always"
         stdDeviation="1.4242081"
         id="feGaussianBlur856" /></filter><filter
       inkscape:collect="always"
       style="color-interpolation-filters:sRGB"
       id="filter858"
       x="-1.7028173"
       y="-0.35710734"
       width="4.4056347"
       height="1.7142147"><feGaussianBlur
         inkscape:collect="always"
         stdDeviation="1.4242081"
         id="feGaussianBlur860" /></filter></defs><g
     inkscape:label="Layer 1"
     inkscape:groupmode="layer"
     id="layer1"
     transform="translate(-299.71502,-237.04444)"><g
       id="g2203"
       transform="translate(62.781216,8.1367409)"
       inkscape:export-filename="/home/yunusskeete/Documents/SpatialIntelligence/Banner dark.png"
       inkscape:export-xdpi="362.85706"
       inkscape:export-ydpi="362.85706"><g
         id="g5107"><path
           style="font-size:14.1085px;font-family:'Wix Madefor Text';-inkscape-font-specification:'Wix Madefor Text, @wght=700';font-variation-settings:'wght' 700;mix-blend-mode:normal;fill:#0e273b;fill-opacity:1;stroke-width:1.17571;filter:url(#filter858)"
           d="m 259.49747,253.90977 h -2.00732 v -9.57163 h 2.00732 z"
           id="path850"
           inkscape:export-filename="/home/yunusskeete/Documents/SpatialIntelligence/Banner dark.png"
           inkscape:export-xdpi="362.85706"
           inkscape:export-ydpi="362.85706" /><path
           style="font-size:14.1085px;font-family:'Wix Madefor Text';-inkscape-font-specification:'Wix Madefor Text, @wght=700';font-variation-settings:'wght' 700;mix-blend-mode:normal;fill:#0e273b;fill-opacity:1;stroke-width:1.17571;filter:url(#filter854)"
           d="m 246.71015,252.35689 1.32334,-1.21821 q 0.35686,0.44177 0.8624,0.76305 0.52042,0.32129 1.11518,0.49532 0.60963,0.16064 1.24899,0.16064 0.98136,0 1.54638,-0.34806 0.57989,-0.36145 0.57989,-0.97724 0,-0.56225 -0.55015,-0.88354 -0.53529,-0.32128 -1.82889,-0.5087 -1.99245,-0.26774 -2.92919,-0.93708 -0.92188,-0.66935 -0.92188,-1.82062 0,-0.89692 0.50555,-1.55288 0.50554,-0.66935 1.39768,-1.03079 0.90701,-0.37483 2.06679,-0.37483 1.32334,0 2.42365,0.44176 1.10031,0.42838 1.85863,1.2316 l -1.27874,1.20482 q -0.57989,-0.64257 -1.33821,-0.97725 -0.74345,-0.34806 -1.65046,-0.34806 -0.89214,0 -1.42742,0.33468 -0.53528,0.32128 -0.53528,0.91031 0,0.5087 0.52041,0.78982 0.52042,0.28113 1.78428,0.46854 2.02218,0.29452 2.9738,1.01741 0.96648,0.7095 0.96648,1.9411 0,0.88353 -0.52041,1.56626 -0.52042,0.66935 -1.47203,1.04418 -0.95162,0.37484 -2.21548,0.37484 -1.36795,0 -2.52773,-0.45516 -1.15978,-0.45515 -1.97758,-1.31191 z"
           id="path852"
           inkscape:export-filename="/home/yunusskeete/Documents/SpatialIntelligence/Banner dark.png"
           inkscape:export-xdpi="362.85706"
           inkscape:export-ydpi="362.85706" /><g
           id="g4997"><path
             id="rect2083"
             style="fill:#1cc7b4;fill-opacity:1;stroke:none;stroke-width:0.969827;stroke-opacity:1"
             d="M 0,0 V 94.488281 H 25.208984 V 87.875 H 7.2558594 V 6.6152344 H 114.97266 V 87.875 H 97.019531 v 6.613281 H 120.94531 V 0 Z"
             transform="matrix(0.26458333,0,0,0.26458333,236.9338,228.9077)" /></g><path
           style="font-size:14.1085px;font-family:'Wix Madefor Text';-inkscape-font-specification:'Wix Madefor Text, @wght=700';font-variation-settings:'wght' 700;fill:#f9f9f9;fill-opacity:1;stroke-width:1.17571"
           d="m 259.49747,253.90977 h -2.00732 v -9.57163 h 2.00732 z"
           id="path2089"
           inkscape:export-filename="/home/yunusskeete/Documents/SpatialIntelligence/Banner dark.png"
           inkscape:export-xdpi="362.85706"
           inkscape:export-ydpi="362.85706" /><path
           style="font-size:14.1085px;font-family:'Wix Madefor Text';-inkscape-font-specification:'Wix Madefor Text, @wght=700';font-variation-settings:'wght' 700;fill:#f9f9f9;fill-opacity:1;stroke-width:1.17571"
           d="m 246.71015,252.35689 1.32334,-1.21821 q 0.35686,0.44177 0.8624,0.76305 0.52042,0.32129 1.11518,0.49532 0.60963,0.16064 1.24899,0.16064 0.98136,0 1.54638,-0.34806 0.57989,-0.36145 0.57989,-0.97724 0,-0.56225 -0.55015,-0.88354 -0.53529,-0.32128 -1.82889,-0.5087 -1.99245,-0.26774 -2.92919,-0.93708 -0.92188,-0.66935 -0.92188,-1.82062 0,-0.89692 0.50555,-1.55288 0.50554,-0.66935 1.39768,-1.03079 0.90701,-0.37483 2.06679,-0.37483 1.32334,0 2.42365,0.44176 1.10031,0.42838 1.85863,1.2316 l -1.27874,1.20482 q -0.57989,-0.64257 -1.33821,-0.97725 -0.74345,-0.34806 -1.65046,-0.34806 -0.89214,0 -1.42742,0.33468 -0.53528,0.32128 -0.53528,0.91031 0,0.5087 0.52041,0.78982 0.52042,0.28113 1.78428,0.46854 2.02218,0.29452 2.9738,1.01741 0.96648,0.7095 0.96648,1.9411 0,0.88353 -0.52041,1.56626 -0.52042,0.66935 -1.47203,1.04418 -0.95162,0.37484 -2.21548,0.37484 -1.36795,0 -2.52773,-0.45516 -1.15978,-0.45515 -1.97758,-1.31191 z"
           id="path2091"
           inkscape:export-filename="/home/yunusskeete/Documents/SpatialIntelligence/Banner dark.png"
           inkscape:export-xdpi="362.85706"
           inkscape:export-ydpi="362.85706" /></g></g></g></svg>
